# Blender 4.3.2
# www.blender.org
mtllib UL_CornerHole.mtl
o Plane
v -1.000000 0.000000 1.000000
v 1.000000 0.000000 1.000000
v -1.000000 0.000000 -1.000000
v 1.000000 -0.500000 -1.000000
v 0.000000 0.000000 1.000000
v 0.000000 0.000000 -1.000000
v -1.000000 0.000000 0.000000
v 1.000000 0.000000 0.000000
v 0.000000 0.000000 0.000000
v 1.000000 -0.500000 0.000000
v 0.000000 0.000000 0.000000
v -1.000000 0.000000 0.000000
v 0.000000 0.000000 1.000000
v 0.000000 -0.500000 -1.000000
v 0.000000 0.000000 0.000000
v 0.000000 -0.500000 0.000000
vn -0.0000 1.0000 -0.0000
vn -0.0000 -0.0000 -1.0000
vn 1.0000 -0.0000 -0.0000
vt 0.500000 0.500000
vt 1.000000 0.500000
vt 1.000000 1.000000
vt 0.500000 1.000000
vt 0.000000 0.500000
vt 0.000000 1.000000
vt 0.000000 0.000000
vt 0.500000 0.000000
vt 1.000000 0.000000
s 0
f 16/1/1 10/2/1 4/3/1 14/4/1
f 12/5/1 11/1/1 6/4/1 3/6/1
f 1/7/1 5/8/1 9/1/1 7/5/1
f 13/8/1 2/9/1 8/2/1 15/1/1
f 7/5/1 9/1/1 11/1/1 12/5/1
f 15/1/2 8/2/2 10/2/2 16/1/2
f 9/1/1 15/1/1 16/1/1 11/1/1
f 5/8/1 13/8/1 15/1/1 9/1/1
f 11/1/3 16/1/3 14/4/3 6/4/3
